<?xml version="1.0" encoding="UTF-8" standalone="no"?>
<svg width="190px" height="171px" viewBox="0 0 190 171" version="1.1" xmlns="http://www.w3.org/2000/svg" xmlns:xlink="http://www.w3.org/1999/xlink">
    <!-- Generator: Sketch 3.8.1 (29687) - http://www.bohemiancoding.com/sketch -->
    <title>real_estate_yellow</title>
    <desc>Created with Sketch.</desc>
    <defs></defs>
    <g id="real-estate" stroke="none" stroke-width="1" fill="none" fill-rule="evenodd">
        <path d="M123.705534,171 L129.540915,171 L129.540915,14.9625 L123.472119,14.9625 L123.472119,145.884375 L100.597426,145.884375 L100.597426,171 L123.705534,171 Z M67.4524632,126.379688 L67.4524632,122.90625 L79.1232248,122.90625 L79.1232248,76.415625 L67.4524632,76.415625 L67.4524632,69.46875 L79.1232248,69.46875 L79.1232248,49.696875 L67.4524632,49.696875 L67.4524632,42.75 L79.1232248,42.75 L79.1232248,14.9625 L82.3910381,14.9625 L82.3910381,42.75 L93.5949693,42.75 L93.5949693,14.9625 L96.8627826,14.9625 L96.8627826,42.75 L108.533544,42.75 L108.533544,14.9625 L111.801358,14.9625 L111.801358,42.75 L123.472119,42.75 L123.472119,49.696875 L111.801358,49.696875 L111.801358,69.46875 L123.472119,69.46875 L123.472119,76.415625 L111.801358,76.415625 L111.801358,122.90625 L117.636738,122.90625 L123.472119,122.90625 L123.472119,145.884375 L67.4524632,145.884375 L67.4524632,126.379688 Z M108.533544,122.90625 L108.533544,76.415625 L96.8627826,76.415625 L96.8627826,122.90625 L108.533544,122.90625 Z M93.5949693,122.90625 L93.5949693,76.415625 L82.3910381,76.415625 L82.3910381,122.90625 L93.5949693,122.90625 Z M82.3910381,69.46875 L82.3910381,49.696875 L93.5949693,49.696875 L93.5949693,69.46875 L82.3910381,69.46875 Z M96.8627826,69.46875 L96.8627826,49.696875 L108.533544,49.696875 L108.533544,69.46875 L96.8627826,69.46875 Z M132.579853,131.189063 L132.579853,122.90625 L183.931204,122.90625 L183.931204,49.1625 L190,49.1625 L190,130.921875 L183.931204,130.921875 L183.931204,126.914063 L183.931204,130.921875 L190,130.921875 L190,159.24375 L163.390663,159.24375 L163.390663,131.45625 L138.648649,131.45625 L138.648649,159.24375 L132.579853,159.24375 L132.579853,131.189063 Z M24.2751843,48.09375 L11.2039312,48.09375 L11.2039312,62.521875 L24.2751843,62.521875 L24.2751843,48.09375 Z M47.6167076,48.09375 L56.019656,48.09375 L56.019656,37.40625 L0,37.40625 L0,47.8265625 L0,138.403125 L11.2039312,138.403125 L11.2039312,123.975 L24.2751843,123.975 L24.2751843,138.403125 L47.6167076,138.403125 L47.6167076,123.975 L56.019656,123.975 L56.019656,113.2875 L47.6167076,113.2875 L47.6167076,98.859375 L56.019656,98.859375 L56.019656,88.171875 L47.6167076,88.171875 L47.6167076,73.209375 L56.019656,73.209375 L56.019656,62.521875 L47.6167076,62.521875 L47.6167076,48.09375 Z M24.2751843,113.2875 L11.2039312,113.2875 L11.2039312,98.859375 L24.2751843,98.859375 L24.2751843,113.2875 Z M24.2751843,88.171875 L11.2039312,88.171875 L11.2039312,73.209375 L24.2751843,73.209375 L24.2751843,88.171875 Z M0,138.403125 L56.019656,138.403125 L56.019656,154.434375 L0,154.434375 L0,138.403125 Z M132.579853,107.94375 L183.931204,107.94375 L183.931204,116.49375 L132.579853,116.49375 L132.579853,107.94375 Z M132.579853,93.515625 L183.931204,93.515625 L183.931204,102.065625 L132.579853,102.065625 L132.579853,93.515625 Z M132.579853,79.0875 L183.931204,79.0875 L183.931204,87.6375 L132.579853,87.6375 L132.579853,79.0875 Z M132.579853,64.125 L183.931204,64.125 L183.931204,72.675 L132.579853,72.675 L132.579853,64.125 Z M132.579853,49.1625 L183.931204,49.1625 L183.931204,57.7125 L132.579853,57.7125 L132.579853,49.1625 Z M138.648649,150.69375 L163.390663,150.69375 L163.390663,159.24375 L138.648649,159.24375 L138.648649,150.69375 Z M60.9168366,14.9625 L67.4524632,14.9625 L67.4524632,171 L60.9168366,171 L60.9168366,14.9625 Z M60.9168366,0 L129.540915,0 L129.540915,14.9625 L60.9168366,14.9625 L60.9168366,0 Z M67.4524632,145.884375 L90.7939865,145.884375 L90.7939865,171 L67.4524632,171 L67.4524632,145.884375 Z" id="real_estate_yellow" fill="#F1C40F"></path>
    </g>
</svg>