<?xml version="1.0" encoding="UTF-8" standalone="no"?>
<svg width="170px" height="153px" viewBox="0 0 170 153" version="1.1" xmlns="http://www.w3.org/2000/svg" xmlns:xlink="http://www.w3.org/1999/xlink">
    <!-- Generator: Sketch 3.8.1 (29687) - http://www.bohemiancoding.com/sketch -->
    <title>Combined Shape</title>
    <desc>Created with Sketch.</desc>
    <defs></defs>
    <g id="Business" stroke="none" stroke-width="1" fill="none" fill-rule="evenodd">
        <path d="M166.433566,105.355263 L166.433566,148.973684 L162.867133,148.973684 L162.867133,153 L98.6713287,153 L98.6713287,100.657895 L159.300699,100.657895 L166.433566,91.2631579 L166.433566,105.355263 Z M10.6993007,100.657895 L72.5174825,100.657895 L72.5174825,153 L8.32167832,153 L8.32167832,104.415789 L8.32167832,104.415789 L8.32167832,148.973684 L4.75524476,148.973684 L4.75524476,105.355263 L4.75524476,91.2631579 L10.6993007,100.657895 Z M114.125874,25.5 L166.433566,25.5 L166.433566,26.2669173 L170,30.8684211 L164.055944,30.8684211 L6.53846154,30.8684211 L0,30.8684211 L4.16083916,25.5 L4.75524476,26.2669173 L4.75524476,25.5 L54.6853147,25.5 L54.6853147,2.00625038 C54.6853147,0.898228891 55.5717026,0 56.6800052,0 L112.131184,0 C113.232821,0 114.125874,0.899785873 114.125874,2.00625038 L114.125874,25.5 Z M160.48951,71.1315789 L170,71.1315789 L150.979021,90.65311 L150.979021,91.2631579 L98.6713287,91.2631579 L98.6713287,71.1315789 L98.6713287,71.1315789 L98.6713287,79.1842105 L72.5174825,79.1842105 L72.5174825,71.1315789 L51.4160839,71.1315789 L72.5174825,71.1315789 L72.5174825,92.6052632 L20.2097902,92.6052632 L0,71.1315789 L15.1573427,71.1315789 L0,71.1315789 L0,30.8684211 L170,30.8684211 L170,71.1315789 L160.48951,71.1315789 Z M78.4615385,83.2105263 L92.7272727,83.2105263 L92.7272727,110.052632 L78.4615385,110.052632 L78.4615385,83.2105263 Z M63.006993,12.7440212 C63.006993,11.6354868 63.9008734,10.7368421 65.0137885,10.7368421 L103.7974,10.7368421 C104.905723,10.7368421 105.804196,11.6256716 105.804196,12.7440212 L105.804196,24.8349262 C105.804196,25.9434606 104.910315,26.8421053 103.7974,26.8421053 L65.0137885,26.8421053 C63.905466,26.8421053 63.006993,25.9532758 63.006993,24.8349262 L63.006993,12.7440212 Z M72.5174825,114.078947 L98.6713287,114.078947 L98.6713287,153 L72.5174825,153 L72.5174825,114.078947 Z M166.433566,148.973684 L162.867133,153 L162.867133,148.973684 L166.433566,148.973684 Z M4.75524476,148.973684 L8.32167832,153 L8.32167832,148.973684 L4.75524476,148.973684 Z" id="Combined-Shape" fill="#F1C40F"></path>
    </g>
</svg>