<?xml version="1.0" encoding="UTF-8" standalone="no"?>
<svg width="297px" height="222px" viewBox="0 0 297 222" version="1.1" xmlns="http://www.w3.org/2000/svg" xmlns:xlink="http://www.w3.org/1999/xlink">
    <!-- Generator: Sketch 3.7.2 (28276) - http://www.bohemiancoding.com/sketch -->
    <title>suitcase yellow</title>
    <desc>Created with Sketch.</desc>
    <defs></defs>
    <g id="Business" stroke="none" stroke-width="1" fill="none" fill-rule="evenodd">
        <g id="suitcase-yellow" fill="#F1C40F">
            <rect id="Rectangle-5-Copy-4" x="137.076923" y="120.736842" width="24.9230769" height="38.9473684"></rect>
            <g id="upperpart">
                <polygon id="Triangle-1" points="7.26923077 37 14.5384615 44.7894737 0 44.7894737"></polygon>
                <polygon id="Triangle-3" transform="translate(262.730769, 117.815789) scale(1, -1) translate(-262.730769, -117.815789) " points="262.730769 103.210526 297 132.421053 228.461538 132.421053"></polygon>
                <polygon id="Triangle-3-Copy" transform="translate(35.307692, 118.789474) scale(1, -1) translate(-35.307692, -118.789474) " points="35.3076923 103.210526 70.6153846 134.368421 0 134.368421"></polygon>
                <rect id="Rectangle-5" x="35.3076923" y="103.210526" width="91.3846154" height="31.1578947"></rect>
                <rect id="Rectangle-5-Copy" x="172.384615" y="101.263158" width="91.3846154" height="31.1578947"></rect>
                <rect id="Rectangle-5-Copy-2" x="126.692308" y="79.8421053" width="45.6923077" height="35.0526316"></rect>
                <rect id="Rectangle-5-Copy-3" x="126.692308" y="79.8421053" width="45.6923077" height="35.0526316"></rect>
                <polygon id="Triangle-1-Copy" points="289.730769 37 297 44.7894737 282.461538 44.7894737"></polygon>
                <rect id="Rectangle-2" x="8.30769231" y="37" width="282.461538" height="7.78947368"></rect>
                <rect id="Rectangle-1" x="0" y="44.7894737" width="297" height="58.4210526"></rect>
                <path d="M95.5384615,2.00890102 C95.5384615,0.899415624 96.4362175,0 97.543169,0 L197.379908,0 C198.487077,0 199.384615,0.894818256 199.384615,2.00890102 L199.384615,40.8332042 C199.384615,41.9426896 198.486859,42.8421053 197.379908,42.8421053 L97.543169,42.8421053 C96.4359996,42.8421053 95.5384615,41.947287 95.5384615,40.8332042 L95.5384615,2.00890102 Z M110.076923,17.5713258 C110.076923,16.4709656 110.968704,15.5789474 112.076819,15.5789474 L182.846258,15.5789474 C183.95077,15.5789474 184.846154,16.4664819 184.846154,17.5713258 L184.846154,36.95499 C184.846154,38.0553502 183.954373,38.9473684 182.846258,38.9473684 L112.076819,38.9473684 C110.972307,38.9473684 110.076923,38.0598339 110.076923,36.95499 L110.076923,17.5713258 Z" id="Combined-Shape"></path>
            </g>
            <g id="lowerpart" transform="translate(8.307692, 132.421053)">
                <rect id="Rectangle-10" x="6.23076923" y="13.6315789" width="112.153846" height="75.9473684"></rect>
                <rect id="Rectangle-10-Copy-3" x="0" y="13.6315789" width="6.23076923" height="70.1052632"></rect>
                <rect id="Rectangle-10-Copy-4" x="274.153846" y="13.6315789" width="8.30769231" height="70.1052632"></rect>
                <rect id="Rectangle-10-Copy" opacity="0.9" x="164.076923" y="13.6315789" width="112.153846" height="75.9473684"></rect>
                <rect id="Rectangle-10-Copy-2" x="118.384615" y="33.1052632" width="45.6923077" height="56.4736842"></rect>
                <polygon id="Triangle-5" points="0 27.2631579 0 0 10.3846154 13.6315789"></polygon>
                <polygon id="Triangle-5-Copy" transform="translate(276.230769, 13.631579) scale(1, -1) rotate(-180.000000) translate(-276.230769, -13.631579) " points="270 27.2631579 270 0 282.461538 13.6315789"></polygon>
                <polygon id="Path-3" points="282.461538 83.7368421 276.230769 89.5789474 276.230769 83.7368421"></polygon>
                <polygon id="Path-3-Copy" transform="translate(3.115385, 86.657895) scale(1, -1) rotate(-180.000000) translate(-3.115385, -86.657895) " points="6.23076923 83.7368421 -5.41788836e-14 89.5789474 -5.41788836e-14 83.7368421"></polygon>
            </g>
        </g>
    </g>
</svg>