<?xml version="1.0" encoding="UTF-8" standalone="no"?>
<svg width="131px" height="170px" viewBox="0 0 131 170" version="1.1" xmlns="http://www.w3.org/2000/svg" xmlns:xlink="http://www.w3.org/1999/xlink">
    <!-- Generator: Sketch 3.8.1 (29687) - http://www.bohemiancoding.com/sketch -->
    <title>Will small yellow</title>
    <desc>Created with Sketch.</desc>
    <defs></defs>
    <g id="Will" stroke="none" stroke-width="1" fill="none" fill-rule="evenodd">
        <g id="Will-small-yellow" fill="#F1C40F">
            <path d="M27.124399,19.8707933 L30.9555288,16.0396635 L30.9555288,27.5330529 C30.9555288,29.6489275 29.2402736,31.3641827 27.124399,31.3641827 L15.6310096,31.3641827 L19.4621394,27.5330529 L15.6310096,31.3641827 L15.6310096,153.960337 L0.306490385,153.960337 L0.306490385,39.0264423 L0.306490385,31.3641827 L30.9555288,0.715144231 L30.9555288,16.0396635 L27.124399,19.8707933 Z M53.9423077,107.986779 L61.6045673,100.324519 L61.6045673,85 L46.2800481,100.324519 C50.5117972,100.324519 53.9423077,103.75503 53.9423077,107.986779 Z M115.240385,31.3641827 L99.9158654,46.6887019 L99.9158654,62.0132212 L122.902644,39.0264423 C123.45476,38.7148291 125.052388,36.8486056 125.052388,36.8486056 C125.052388,36.8486056 126.178698,35.618216 126.733774,35.1953124 C126.983071,35.0053768 128.134752,33.8089171 128.134752,33.8089171 C128.134752,33.8089171 130.2255,31.5857008 130.564904,31.3641826 C130.564904,27.1324336 127.134393,23.7019231 122.902644,23.7019231 C121.781234,24.8368756 119.071514,27.5330529 119.071514,27.5330529 L115.240385,31.3641827 Z M107.687819,77.3377404 L92.2536058,77.3377404 L107.799095,62.0132212 L107.687819,77.3377404 Z M92.2536058,77.3377404 L107.578125,77.3377404 L107.578125,164.276083 C107.578125,167.042352 105.333397,169.284856 102.581509,169.284856 L92.2536058,169.284856 L92.2536058,77.3377404 Z M23.2932692,56.3441278 C23.2932692,55.2433325 24.1794693,54.3509615 25.2979665,54.3509615 L76.9290865,54.3509615 L76.9290865,62.0132212 L25.2979665,62.0132212 C24.1908028,62.0132212 23.2932692,61.1192667 23.2932692,60.0200549 L23.2932692,56.3441278 Z M23.2932692,71.668647 C23.2932692,70.5678517 24.1838826,69.6754808 25.29911,69.6754808 L61.6045673,69.6754808 L61.6045673,77.3377404 L25.29911,77.3377404 C24.1913147,77.3377404 23.2932692,76.4437859 23.2932692,75.3445741 L23.2932692,71.668647 Z M23.2932692,86.9931663 C23.2932692,85.8923709 24.1943782,85 25.2929833,85 L46.2800481,85 L46.2800481,92.6622596 L25.2929833,92.6622596 C24.1885717,92.6622596 23.2932692,91.7683052 23.2932692,90.6690934 L23.2932692,86.9931663 Z M0.306490385,153.960337 L92.2536058,153.960337 L92.2536058,169.284856 L5.31526361,169.284856 C2.54899454,169.284856 0.306490385,167.040127 0.306490385,164.28824 L0.306490385,153.960337 Z M30.9555288,0.715144231 L102.580259,0.715144231 C105.340504,0.715144231 107.578125,2.95987267 107.578125,5.71176036 L107.578125,16.0396635 L30.9555288,16.0396635 L30.9555288,0.715144231 Z M92.2536058,16.0396635 L107.578125,16.0396635 L107.578125,31.3641827 L92.2536058,31.3641827 L92.2536058,16.0396635 Z M107.578125,31.3641827 L92.2536058,31.3641827 L92.2536058,46.6887019 L107.578125,31.3641827 Z M69.2668269,69.6754808 L61.6045673,69.6754808 L61.6045673,77.3377404 L69.2668269,69.6754808 Z M61.6045673,85 L69.2668269,85 L69.2668269,77.3377404 L61.6045673,85 Z M69.2668269,92.6622596 L61.6045673,92.6622596 L61.6045673,100.324519 L69.2668269,92.6622596 Z M61.6045673,85 L69.2668269,85 L69.2668269,92.6622596 L61.6045673,92.6622596 L61.6045673,85 Z M84.5913462,54.3509615 L76.9290865,54.3509615 L76.9290865,62.0132212 L84.5913462,54.3509615 Z M53.9423077,85 L46.2800481,85 L46.2800481,92.6622596 L53.9423077,85 Z M84.5913462,62.0132212 L99.9158654,46.6887019 L99.9158654,62.0132212 L84.5913462,77.3377404 L84.5913462,62.0132212 Z M69.2668269,77.3377404 L84.5913462,62.0132212 L84.5913462,77.3377404 L69.2668269,92.6622596 L69.2668269,77.3377404 Z M38.6177885,107.986779 L46.2800481,115.649038 L38.6177885,115.649038 L38.6177885,107.986779 Z" id="Combined-Shape"></path>
        </g>
    </g>
</svg>