<?xml version="1.0" encoding="UTF-8" standalone="no"?>
<svg width="322px" height="404px" viewBox="0 0 322 404" version="1.1" xmlns="http://www.w3.org/2000/svg" xmlns:xlink="http://www.w3.org/1999/xlink">
    <!-- Generator: Sketch 3.7.2 (28276) - http://www.bohemiancoding.com/sketch -->
    <title>will yellow</title>
    <desc>Created with Sketch.</desc>
    <defs></defs>
    <g id="Will" stroke="none" stroke-width="1" fill="none" fill-rule="evenodd">
        <g id="will-yellow" transform="translate(-1.000000, -1.000000)" fill="#F1C40F">
            <g id="right-down" transform="translate(1.000000, 194.195646)">
                <rect id="Rectangle-1" x="222.034241" y="31.8633779" width="31.2367563" height="171.056029"></rect>
                <path d="M238.810483,179.441128 C246.330546,179.441128 252.426761,183.577027 252.426761,188.665612 L252.426761,201.241512 C252.426761,206.336054 246.343124,210.465996 238.810483,210.465996 L13.6162775,210.465996 C6.09621509,210.465996 -3.51686277e-14,206.330097 0,201.241512 L0,188.665612 C-3.51686277e-14,183.57107 6.08363679,179.441128 13.6162775,179.441128 L238.810483,179.441128" id="Rectangle-1-Copy"></path>
                <polygon id="Path-1" points="222.034241 31.8633779 253.270997 31.8633779 253.270997 0"></polygon>
            </g>
            <g id="right-up" transform="translate(168.546719, 62.260810) scale(-1, 1) rotate(-180.000000) translate(-168.546719, -62.260810) translate(82.046719, 0.760810)">
                <rect id="Rectangle-1" x="140.987522" y="31.0248679" width="31.2367563" height="82.1739745"></rect>
                <path d="M162.934243,91.3975839 C168.064988,91.3975839 172.224278,95.533483 172.224278,100.622068 L172.224278,113.197968 C172.224278,118.29251 168.07357,122.422452 162.934243,122.422452 L9.29003548,122.422452 C4.15929056,122.422452 0,118.286553 0,113.197968 L0,100.622068 C0,95.5275259 4.15070871,91.3975839 9.29003548,91.3975839 L162.934243,91.3975839" id="Rectangle-1-Copy"></path>
                <polygon id="Path-1" transform="translate(156.605900, 15.512434) scale(-1, 1) translate(-156.605900, -15.512434) " points="140.987522 31.0248679 172.224278 31.0248679 172.224278 -3.55271368e-15"></polygon>
                <rect id="Rectangle-7" x="1.77635684e-15" y="91.3975839" width="8.44236658" height="31.0248679"></rect>
            </g>
            <g id="left-down" transform="translate(120.792076, 235.874804) rotate(-270.000000) translate(-120.792076, -235.874804) translate(-40.207924, 115.874804)">
                <rect id="Rectangle-1" x="296.327067" y="-2.30215846e-12" width="25.1119022" height="238.975334"></rect>
                <rect id="Rectangle-1-Copy" transform="translate(160.719485, 223.462900) rotate(-270.000000) translate(-160.719485, -223.462900) " x="145.101106" y="63.8336247" width="31.2367563" height="319.258551" rx="11"></rect>
                <rect id="Rectangle-7-Copy" x="6.66133815e-15" y="207.950466" width="7.59812992" height="31.0248679"></rect>
            </g>
            <g id="left-up-corner" transform="translate(1.000000, 1.338358)">
                <polygon id="Path-3" points="0 74.627385 81.0467192 0 81.0467192 31.0248679 31.2367563 74.627385"></polygon>
                <rect id="Rectangle-9" x="37.1464129" y="44.441027" width="43.9003062" height="30.186358" rx="11"></rect>
                <polygon id="Path-4" points="81.0467192 31.0248679 81.0467192 52.8261265 55.7196194 52.8261265"></polygon>
                <polygon id="Path-5" points="46.4330162 74.627385 31.2367563 74.627385 37.9906496 68.7578154"></polygon>
            </g>
            <g id="pencil" transform="translate(113.127712, 78.627991)">
                <path d="M26.7300773,150.296923 C26.9459154,149.463816 27.3793557,148.676411 28.0298884,148.025879 L173.784687,2.27108004 C175.736561,0.319206161 178.904842,0.322874284 180.858654,2.27668676 L207.601796,29.0198284 C209.556766,30.9747988 209.554081,34.1471176 207.607403,36.0937958 L61.8526041,181.848594 C61.0989336,182.602265 60.1639042,183.064376 59.1874594,183.235239 C54.7785623,167.48226 42.4503215,155.003944 26.7300773,150.296923 Z" id="Combined-Shape"></path>
                <g id="pointy-top" transform="translate(19.034983, 191.573644) rotate(223.000000) translate(-19.034983, -191.573644) translate(5.034983, 180.073644)">
                    <path d="M13.9239678,5.6200541 L13.9239678,16.8573406 L13.9239678,20.2285266 C13.9239678,20.2285266 13.2088764,25.4725936 24.2927903,20.2285266 C35.3767043,14.9844595 13.9239678,0.375987051 13.9239678,0.375987051 L13.9239678,7.8675114" id="Path-6"></path>
                    <ellipse id="Oval-3" cx="13.7362351" cy="0.902370078" rx="0.356785328" ry="0.60157929"></ellipse>
                    <path d="M13.5227375,5.6200541 L13.4475125,16.8573406 L13.424945,20.2285266 C13.424945,20.2285266 14.0938905,25.4725936 3.16233015,20.2285266 C-7.88443169,14.9844595 13.5578425,0.375987051 13.5578425,0.375987051 L13.5076925,7.8675114" id="Path-6-Copy"></path>
                    <ellipse id="Oval-2" cx="13.5578425" cy="22.183236" rx="4.63820927" ry="0.751974102"></ellipse>
                    <rect id="Rectangle-11" x="12.8442718" y="1.12796115" width="1.42714131" height="21.0552748"></rect>
                </g>
            </g>
            <g id="long-line" transform="translate(50.809963, 141.369519)">
                <rect id="Rectangle-18-Copy" x="0" y="0" width="138.454812" height="16.7701989" rx="5"></rect>
                <polygon id="Path-1-Copy-2" transform="translate(146.897178, 8.385099) scale(-1, -1) translate(-146.897178, -8.385099) " points="138.454812 16.7701989 155.339545 16.7701989 155.339545 -3.55271368e-14"></polygon>
            </g>
            <g id="medium-line" transform="translate(50.809963, 168.201837)">
                <rect id="Rectangle-18-Copy-2" x="0" y="26.8323182" width="86.1121391" height="16.7701989" rx="5"></rect>
                <polygon id="Path-1-Copy-3" transform="translate(120.725842, 8.385099) scale(-1, -1) translate(-120.725842, -8.385099) " points="112.283476 16.7701989 129.168209 16.7701989 129.168209 -1.42108547e-14"></polygon>
            </g>
            <g id="short-line" transform="translate(50.809963, 168.201837)">
                <rect id="Rectangle-18" x="0" y="0" width="112.283476" height="16.7701989" rx="5"></rect>
                <polygon id="Path-1-Copy-4" transform="translate(94.554506, 35.217418) scale(-1, -1) translate(-94.554506, -35.217418) " points="86.1121391 43.6025171 102.996872 43.6025171 102.996872 26.8323182"></polygon>
            </g>
        </g>
    </g>
</svg>