<?xml version="1.0" encoding="UTF-8" standalone="no"?>
<svg width="150px" height="150px" viewBox="0 0 150 150" version="1.1" xmlns="http://www.w3.org/2000/svg" xmlns:xlink="http://www.w3.org/1999/xlink">
    <!-- Generator: Sketch 3.7.2 (28276) - http://www.bohemiancoding.com/sketch -->
    <title>Will small yellow</title>
    <desc>Created with Sketch.</desc>
    <defs></defs>
    <g id="Will" stroke="none" stroke-width="1" fill="none" fill-rule="evenodd">
        <g id="Will-small-yellow" fill="#F1C40F">
            <polygon id="Triangle-1" points="107.879607 70.3125 98.4375 70.3125 107.947682 60.9375"></polygon>
            <rect id="Rectangle-29" x="98.4375" y="70.3125" width="9.375" height="56.25"></rect>
            <rect id="Rectangle-41" x="56.25" y="56.25" width="32.8125" height="4.6875" rx="2"></rect>
            <rect id="Rectangle-41-Copy" x="56.25" y="65.625" width="23.4375" height="4.6875" rx="2"></rect>
            <rect id="Rectangle-41-Copy-2" x="56.25" y="75" width="14.0625" height="4.6875" rx="2"></rect>
            <circle id="Oval-9" cx="58.59375" cy="39.84375" r="2.34375"></circle>
            <rect id="Rectangle-30" x="42.1875" y="117.1875" width="56.25" height="9.375"></rect>
            <rect id="Rectangle-31" x="42.1875" y="42.1875" width="9.375" height="75"></rect>
            <rect id="Rectangle-32" x="60.9375" y="23.4375" width="46.875" height="9.375"></rect>
            <rect id="Rectangle-33" x="98.4375" y="32.8125" width="9.375" height="9.375"></rect>
            <polygon id="Triangle-1" points="107.8125 42.1875 98.4375 42.1875 98.4375 51.5625"></polygon>
            <polygon id="Triangle-1-Copy" points="84.375 65.625 79.6875 65.625 79.6875 70.3125"></polygon>
            <polygon id="Triangle-1-Copy-6" transform="translate(57.421875, 36.328125) scale(-1, -1) translate(-57.421875, -36.328125) " points="60.9375 32.8125 53.90625 32.8125 53.90625 39.84375"></polygon>
            <polygon id="Triangle-1-Copy-7" transform="translate(55.078125, 38.671875) scale(-1, -1) translate(-55.078125, -38.671875) " points="58.59375 35.15625 51.5625 35.15625 51.5625 42.1875"></polygon>
            <polygon id="Triangle-1-Copy-4" transform="translate(82.031250, 72.656250) scale(-1, -1) translate(-82.031250, -72.656250) " points="84.375 70.3125 79.6875 70.3125 79.6875 75"></polygon>
            <polygon id="Triangle-1-Copy-5" points="84.375 79.6875 79.6875 79.6875 79.6875 84.375"></polygon>
            <rect id="Rectangle-40" x="79.6875" y="75" width="4.6875" height="4.6875"></rect>
            <polygon id="Triangle-1-Copy-3" points="93.75 56.25 89.0625 56.25 89.0625 60.9375"></polygon>
            <polygon id="Triangle-1-Copy-2" points="75 75 70.3125 75 70.3125 79.6875"></polygon>
            <polygon id="Rectangle-34" points="93.75 60.9375 103.125 51.5625 103.125 60.9375 93.75 70.3125"></polygon>
            <path d="M112.5,42.1875 L117.1875,46.875 L103.125,60.9375 L103.125,51.5625 L112.5,42.1875 Z" id="Rectangle-34-Copy"></path>
            <path d="M117.1875,46.875 C117.525265,46.6843661 118.502638,45.5426763 118.502638,45.5426763 C118.502638,45.5426763 119.191674,44.7899674 119.53125,44.5312499 C119.683761,44.415054 120.388319,43.6831022 120.388319,43.6831022 C120.388319,43.6831022 121.667365,42.3230169 121.875,42.1874999 C121.875,39.5986652 119.776335,37.5 117.1875,37.5 C116.501461,38.1943239 114.84375,39.84375 114.84375,39.84375 L112.5,42.1875 C112.5,44.7763348 117.1875,46.875 117.1875,46.875 Z" id="Oval-7"></path>
            <polygon id="Rectangle-34-Copy-2" points="84.375 70.3125 93.75 60.9375 93.75 70.3125 84.375 79.6875"></polygon>
            <path d="M75,89.0625 L79.6875,84.375 L79.6875,75 L70.3125,84.375 C72.9013348,84.375 75,86.4736652 75,89.0624999 Z" id="Combined-Shape"></path>
            <polygon id="Rectangle-34-Copy-4" points="42.1875 42.1875 60.9375 23.4375 60.9375 32.8125 42.1875 51.5625"></polygon>
            <path d="M65.625,89.0625 L70.3125,93.75 L65.625,93.75 L65.625,89.0625 Z" id="Triangle-3"></path>
            <path d="M75,150 C116.421356,150 150,116.421356 150,75 C150,33.5786438 116.421356,0 75,0 C33.5786438,0 0,33.5786438 0,75 C0,116.421356 33.5786438,150 75,150 Z M75,140 C110.898509,140 140,110.898509 140,75 C140,39.1014913 110.898509,10 75,10 C39.1014913,10 10,39.1014913 10,75 C10,110.898509 39.1014913,140 75,140 Z" id="Combined-Shape"></path>
        </g>
    </g>
</svg>